<?xml version="1.0" encoding="UTF-8"?>
<svg enable-background="new 0 0 460.5 241.334" viewBox="0 0 460.5 241.334" xmlns="http://www.w3.org/2000/svg">
 <path d="m200.5,79.583c-1.084,5.431 10.527-.452 12.75-.806 1.734-.276 5.006-.756 6.75-.2 3.359,1.072.798,2.823 1.488,5.255 .764,2.691 5.029,2.009 7.012,2.689 1.556.534 4.762,3.743 6.514,2.774 1.006-.556.457-2.012 1.28-2.712 1.188-1.009 2.423-.718 3.772-.056 2.094,1.027 3.273,3.203 6.164,2.769 2.896-.435 5.918-2.623 8.013-.213 1.321,1.521 2.513,4.942-.199,5.793-.386,1.657 3.13,4.841 4.019,6.45 1.256,2.274 2.174,4.661 3.994,6.506 2.199,2.231 3.7,3.675 5.133,6.501 1.136,2.244 2.437,4.456 4.562,5.75 1.144.695 2.372.953 3.683,1 1.656.061 4.932-1.78 6.334-1.018 3.481,1.892-2.257,6.325-3.521,7.523-4.777,4.524-7.694,10.358-10.977,15.746-1.498,2.459-3.25,5.085-3.27,8.062-.021,3.394 2.059,6.285 1.749,9.688-.606,6.664-7.665,8.211-8.763,15.005-.322,2 .734,4.949-.287,6.683-.473.802-2.086,1.246-2.705,2.119-.973,1.368-.883,2.715-1.245,4.256-.731,3.11-3.204,5.535-5.742,7.442-2.475,1.86-5.563,1.604-8.567,1.738-2.799.125-4.881.825-6.5-1.995-1.756-3.062-1.149-7.773-2.67-11.205-1.846-4.167-5.245-8.212-6.205-12.756-.705-3.338 1.585-7.096 2.63-10.303 .479-1.471 1.012-3.92.557-5.447-.482-1.618-1.73-2.242-2.756-3.788-1.888-2.849-1.67-5.74-2.433-8.813-.782-3.148-.843-5.562-2.804-8.188-1.983-2.652-3.86-3.18-6.958-4.055-3.523-.996-6.044-.361-9.619.748-3.563,1.106-6.656,3.004-10.249,1.057-7.565-4.104-7.147-13.321-8.501-20.562-.776-4.153-2.612-7.712.008-11.437 2.462-3.5 7.177-5.423 9.123-9.243 1.402-2.753 1.112-6.588 3.37-9.068 .683-.75 1.801-1.092 2.63-1.626 .892-.575 1.312-1.61 1.688-1.062" fill="#fff"/>
 <path d="m200.5,79.583c-1.084,5.431 10.527-.452 12.75-.806 1.734-.276 5.006-.756 6.75-.2 3.359,1.072.798,2.823 1.488,5.255 .764,2.691 5.029,2.009 7.012,2.689 1.556.534 4.762,3.743 6.514,2.774 1.006-.556.457-2.012 1.28-2.712 1.188-1.009 2.423-.718 3.772-.056 2.094,1.027 3.273,3.203 6.164,2.769 2.896-.435 5.918-2.623 8.013-.213 1.321,1.521 2.513,4.942-.199,5.793-.386,1.657 3.13,4.841 4.019,6.45 1.256,2.274 2.174,4.661 3.994,6.506 2.199,2.231 3.7,3.675 5.133,6.501 1.136,2.244 2.437,4.456 4.562,5.75 1.144.695 2.372.953 3.683,1 1.656.061 4.932-1.78 6.334-1.018 3.481,1.892-2.257,6.325-3.521,7.523-4.777,4.524-7.694,10.358-10.977,15.746-1.498,2.459-3.25,5.085-3.27,8.062-.021,3.394 2.059,6.285 1.749,9.688-.606,6.664-7.665,8.211-8.763,15.005-.322,2 .734,4.949-.287,6.683-.473.802-2.086,1.246-2.705,2.119-.973,1.368-.883,2.715-1.245,4.256-.731,3.11-3.204,5.535-5.742,7.442-2.475,1.86-5.563,1.604-8.567,1.738-2.799.125-4.881.825-6.5-1.995-1.756-3.062-1.149-7.773-2.67-11.205-1.846-4.167-5.245-8.212-6.205-12.756-.705-3.338 1.585-7.096 2.63-10.303 .479-1.471 1.012-3.92.557-5.447-.482-1.618-1.73-2.242-2.756-3.788-1.888-2.849-1.67-5.74-2.433-8.813-.782-3.148-.843-5.562-2.804-8.188-1.983-2.652-3.86-3.18-6.958-4.055-3.523-.996-6.044-.361-9.619.748-3.563,1.106-6.656,3.004-10.249,1.057-7.565-4.104-7.147-13.321-8.501-20.562-.776-4.153-2.612-7.712.008-11.437 2.462-3.5 7.177-5.423 9.123-9.243 1.402-2.753 1.112-6.588 3.37-9.068 .683-.75 1.801-1.092 2.63-1.626 .892-.575 1.312-1.61 1.688-1.062" fill="none" stroke="#000" stroke-linecap="round" stroke-linejoin="round" stroke-miterlimit="10" stroke-width="1.5"/>
 <path d="m278.25,160.333c-.456,2.098-2.375,4.846-4.182,5.998-1.106.706-3.616.8-4.336,1.734-2.16,2.808.729,11.842.711,15.267-.012,2.394-.082,3.474 2.287,1.217 3.186-3.032 3.271-7.288 4.324-11.221 .649-2.431.784-4.825 1.194-7.308 .308-1.857 1.207-3.778.444-5.66-.411-.2-.286.197-.444.223" fill="#fff"/>
 <path d="m278.25,160.333c-.456,2.098-2.375,4.846-4.182,5.998-1.106.706-3.616.8-4.336,1.734-2.16,2.808.729,11.842.711,15.267-.012,2.394-.082,3.474 2.287,1.217 3.186-3.032 3.271-7.288 4.324-11.221 .649-2.431.784-4.825 1.194-7.308 .308-1.857 1.207-3.778.444-5.66-.411-.2-.286.197-.444.223" fill="none" stroke="#000" stroke-linecap="round" stroke-linejoin="round" stroke-miterlimit="10" stroke-width="1.5"/>
 <path d="m99.25,121.083c-2.429-.328-4.172,2.671-5.062,4.501-1.101,2.263-2.82,3.679-2.938,6.242-.13,2.837 1.405,4.8-.75,7.207-1.767,1.973-3.723,2.553-4.262,5.549-.383,2.13.387,5.007 1,6.952 .753,2.393 3.202,3.693 4.451,6.105 1.414,2.729 2.347,5.465 4.506,7.698 1.721,1.781 3.462,1.685 5.555,2.927 2.922,1.733 3.125,3.629 3.495,6.812 .388,3.337 1.26,6.442 1.256,9.825-.006,5.601 1,10.916 1,16.631 0,2.548.266,4.589.812,7.037 .562,2.524.046,4.838.439,7.263 .202,1.246 1.185,2.053 1.692,3.239 .608,1.419.394,3.174.989,4.518 .452,1.021.897,1.424 1.562,2 .258.225.964-.043 1.312.227 .608.471.855,1.297 1.438,1.773 1.261,1.031 2.934,1.008 4.274,1.807 1.191.711 1.502,1.904 2.538,2.639 1.91,1.354 5.059,1.646 5.919-.889-2.701-1.479-4.347-1.754-5.902-4.136-.659-1.01-.862-.868-1.318-2.432-.381-1.306-.239-1.406-.317-2.759-.057-.965.604-1.606-.132-2.742-.677-1.044-1.747-.624-2.499-1.301-2.326-2.094.235-2.334 1.131-4.188 1.176-2.435-1.806-3.542-1.191-5.505 .553-1.768 3.746-.914 4.753-2.502 .812-1.279-.702-1.542 1.001-2.248 1.189-.493 2.884.463 4.183.249 1.604-.265 2.429-.479 2.067-2.506-.314-1.769-.656-1.075-2-1.988-.922-.626-1.77-.532-1.979-1.772 2.777-.867 5.217,1.302 6.492-2.222 .942-2.602.611-4.909 2.057-7.512 .596-1.072 1.126-1.851 1.43-3 .295-1.118-.283-2.373.684-3.317 1.534-1.5 4.919-.746 6.816-2.238 3.562-2.801 2.461-7.853 2.501-11.694 .056-5.39 6.129-8.097 6.25-13.822 .071-3.388-1.417-5.528-4.2-7.426-2.733-1.864-5.405-.702-8.293-1.731-1.634-.584-2.237-1.961-3.495-3.02-1.491-1.256-3.181-1.236-4.712-2.05-3.025-1.606-1.884-4.197-3.051-6.89-1.464-3.377-3.655-4.763-7.176-5.074-2.163-.191-2.238.205-3.749-1.037-1.771-1.457-2.424-4.422-4.311-5.71-2.951-2.014-4.916,1-7.764,1.011-1.731.007-4.44-3.308-5.5-1.5" fill="#fff"/>
 <path d="m134.25,225.333c-1.135-1.73-4.797-.77-2.967.948 2.289,2.146 4.223-2.583.967-1.698" fill="#fff"/>
 <path d="m99.25,121.083c-2.429-.328-4.172,2.671-5.062,4.501-1.101,2.263-2.82,3.679-2.938,6.242-.13,2.837 1.405,4.8-.75,7.207-1.767,1.973-3.723,2.553-4.262,5.549-.383,2.13.387,5.007 1,6.952 .753,2.393 3.202,3.693 4.451,6.105 1.414,2.729 2.347,5.465 4.506,7.698 1.721,1.781 3.462,1.685 5.555,2.927 2.922,1.733 3.125,3.629 3.495,6.812 .388,3.337 1.26,6.442 1.256,9.825-.006,5.601 1,10.916 1,16.631 0,2.548.266,4.589.812,7.037 .562,2.524.046,4.838.439,7.263 .202,1.246 1.185,2.053 1.692,3.239 .608,1.419.394,3.174.989,4.518 .452,1.021.897,1.424 1.562,2 .258.225.964-.043 1.312.227 .608.471.855,1.297 1.438,1.773 1.261,1.031 2.934,1.008 4.274,1.807 1.191.711 1.502,1.904 2.538,2.639 1.91,1.354 5.059,1.646 5.919-.889-2.701-1.479-4.347-1.754-5.902-4.136-.659-1.01-.862-.868-1.318-2.432-.381-1.306-.239-1.406-.317-2.759-.057-.965.604-1.606-.132-2.742-.677-1.044-1.747-.624-2.499-1.301-2.326-2.094.235-2.334 1.131-4.188 1.176-2.435-1.806-3.542-1.191-5.505 .553-1.768 3.746-.914 4.753-2.502 .812-1.279-.702-1.542 1.001-2.248 1.189-.493 2.884.463 4.183.249 1.604-.265 2.429-.479 2.067-2.506-.314-1.769-.656-1.075-2-1.988-.922-.626-1.77-.532-1.979-1.772 2.777-.867 5.217,1.302 6.492-2.222 .942-2.602.611-4.909 2.057-7.512 .596-1.072 1.126-1.851 1.43-3 .295-1.118-.283-2.373.684-3.317 1.534-1.5 4.919-.746 6.816-2.238 3.562-2.801 2.461-7.853 2.501-11.694 .056-5.39 6.129-8.097 6.25-13.822 .071-3.388-1.417-5.528-4.2-7.426-2.733-1.864-5.405-.702-8.293-1.731-1.634-.584-2.237-1.961-3.495-3.02-1.491-1.256-3.181-1.236-4.712-2.05-3.025-1.606-1.884-4.197-3.051-6.89-1.464-3.377-3.655-4.763-7.176-5.074-2.163-.191-2.238.205-3.749-1.037-1.771-1.457-2.424-4.422-4.311-5.71-2.951-2.014-4.916,1-7.764,1.011-1.731.007-4.44-3.308-5.5-1.5" fill="none" stroke="#000" stroke-linecap="round" stroke-linejoin="round" stroke-miterlimit="10" stroke-width="1.5"/>
 <path d="m134.25,225.333c-1.135-1.73-4.797-.77-2.967.948 2.289,2.146 4.223-2.583.967-1.698" fill="none" stroke="#000" stroke-linecap="round" stroke-linejoin="round" stroke-miterlimit="10" stroke-width="1.5"/>
 <path d="m197,56.083c1.076-2.117 3.062-1.336 3.986-2.75 .755-1.155.705-3.744.22-4.957-1.958-.508-3.586.906-3.244,2.918-1.935-.794-4.093.376-1.433,1.782-.921.542-1.608,1.527-1.248,2.719 .914.118 1.762-.138 2.468-.712" fill="#fff"/>
 <path d="m204.75,44.333c-1.877-.678-2.598-.053-2.75,1.75-.195,2.311 1.309,2.049 2.193,3.764 1.872,3.63-3.195,3.833-2.737,7.193-.231.128-.399.134-.618.306 2.237.022 3.865-.719 5.912-1.25 2-.519 4.921-.511 2.999-2.95-.582-.738-2.083-.81-2.692-1.632-.735-.992-.24-1.523-.557-2.681-.292-1.065-1.486-4.847-2.5-5.25" fill="#fff"/>
 <path d="m225.25,31.583c-1.508,2.171-2.83,4.95-5.5,5.763-2.348.715-4.197-.119-5.256,2.731-1.15,3.095.841,3.99 3.562,3.755 2.25-.194 5.024-2.384 5.693.251 .465,1.83-1.769,4.524 1.501,5.006 2.842.418 4.569-3.783 5.188-6.006 .585-2.106-.945-4.235.002-5.756 .316-.508 1.824-.967 2.38-1.488 .632-.593 1.039-2.427 1.979-2.705 4.396-1.303-.485,4.557-.562,5.199-.104.862 1.047,3.034 1.513,3.255 1.574.747 2.584-.939 3.743-1.317 2.6-.847 5.105,1.879 2.006,2.511-1.26.257-6.441-2.279-5.961,1.513 .91.057 1.795.136 2.674.325 .232.484.35,1.387.249,1.925-.312.013-.604.018-.919,0-.441-.693-.816-1.443-1.08-2.175-2.427-.449-2.007,2.332-1.919,3.919 2.47,1.301-1.313,1.749-2.294,1.793-1.895.087-3.379.478-5.25.5-.854.01-1.759-.376-2.556-.261-.769.111-2.082,1.304-2.75,1.204-2.939-.438.32-2.428 1.341-2.943-.698-.347-2.063-.327-2.484-.994-.329-.521.293-2.218.161-2.967-2.272-.432-3.414,2.039-3.218,3.962 .301,2.955 1.924,2.57-1.244,3.75-2.473.921-2.041,1.984-4.062,3.693-1.471,1.245-4.047,1.529-4.226,4.018-1.432-.06-3.1-4.344-2.75.251-1.935.047-4.45.159-2.211,2.238 .795.739 1.725.054 2.506,1.042 .627.794.497,1.774.493,2.757-.013,3.206-.673,2.57-3.25,2.056-1.862-.372-4.322-.812-6.212-.518-.19,3.786-1.572,7.359-1.5,11.175 2.411.764 3.623-1.588 5.975-1.225 .891.138 1.47,1.274 2.482,1.28 1.491.009 3.03-1.613 3.937-2.586 1.417-1.521 1.144-3.18 2.374-4.694 1.306-1.608 4.197-.961 4.481-3.45 .913-.049 2.361.248 3.213-.088 1.084-.428 1.392-1.979 2.182-2.272 2.351-.874 3.207,1.786 4.13,3.33 1.289,2.156 3.234,1.825 4.619,3.556 1.846,2.308-.798,3.203-1.392,5.15 3.218.414 2.881-3.239 2.999-5.425 1.206.212 1.866,1.192 2.467-.033 1.031-2.107-1.292-2.758-2.561-3.005-2.549-.496-4.669-.051-6.257-2.736-.65-1.1-1.292-2.28.562-2.524 1.249-.165 2.982,2.293 4.013,2.955 .89.572 1.939.704 2.73,1.355 1.064.878 1.27,2.293 2.293,3.187-3.241,3.894 3.792,7.412 6.92,7.22 .218-.675.607-1.375.764-1.749-.477-1.175-3.334-2.702-2.681-4.212 .387-.895 4.312-1.088 5.019-1.488 1.295-.737 3.036-2.217 3.442-3.507 .606-1.93-.683-4.052 2.506-3.762 1.754.16 2.394,2.42 3.794,2.712s1.489-1.053 2.25-1.163c1.311-.19 1.79.283 2.895.769 4.473,1.964 9.375,1.671 14.013,2.912 .129-1.334-1.19-1.713-1.212-2.968-.021-1.198.838-1.919 1.541-2.763-1.545-1.258-3.549-2.311-3.534-4.487 .019-2.606 2.651-3.943 5.013-3.75 2.34.191 3.971,2.394 5.992.306 1.987-2.051.165-3.986.245-6.306 .12-3.479.886-4.44-.757-7.938-1.233-2.625-2.693-4.829-.994-7.263 .775-1.11 5.312-3.908 4.518-5.562-.658-1.372-4.961-.696-6.268-1.043-1.809-.481-2.9-1.004-4.967-.907 .179.789.557,1.265 1.428,1.504-.249,2.524-5.156-.209-6.911.258-2.276.606-4.478,3.692-6.512,4.168-.228-1.033.347-1.99.869-2.779-.483-.511-2.526-1.645-3.119-.706-.738,1.167 1.575,1.36 1.424,2.73-2.499.046-3.717.526-5.937,1.6 .728.505.923,1.214 1.186,1.9-1.291-.023-1.322-2.278-2.66-1.662-.895.413-.537,2.3-.34,2.912-2.009.185-2.251-3.137-3.441-4.413 1.672-.117 4.4.553 5.98-.051 2.311-.883 1.625-2.582-.5-3.68-2.812-1.452-6.243-.726-9.25-1.5-3.423-.881-6.434-1.516-10.068-.638-2.752.664-7.244,1.486-9.468,3.055 .557.68 1.533.642 2.508.551-.515,1.452-2.441,1.54-3.472,2.645-1.062,1.139-.635,2.458-1.75,3.568" fill="#fff"/>
 <path d="m219.5,71.083c-1.312.972-1.353,5.145 1.224,4.405 .308-1.357-.192-2.824-1.724-2.905" fill="#fff"/>
 <path d="m242.75,81.333c-1.396.09-2.784-.672-3.984-.263 .959.957 4.414,1.865 5.728.818-1.437-.118-2.659-.983-3.242-2.306" fill="#fff"/>
 <path d="m268.75,26.333c-1.373.33-4.602.579-5.018-1.487-.43-2.127 2.263-2.209 3.461-3.312 .621-.572.511-1.403 1.363-2.018 .893-.644 2.467-.77 3.506-.938 1.637-.265 4.051-.984 5.672-.707-2.387,2.992-8.09,1.838-10.291,5.199-1.074,1.641.076,4.124-.693,5.264" fill="#fff"/>
 <path d="m228.75,14.583c-1.9,0-3.827-.059-5.712.038-.428,1.986 2.044,7.052 4.786,5.486 1.445-.825.701-3.656 2.927-3.779 1.812-.1 1.325,1.557 2.962,1.912 .258-1.895-2.165-1.549-2.678-2.869 1.348-.065 4.044.58 4.189-1.25-2.972-.162-6.848-.358-9.475.462" fill="#fff"/>
 <path d="m255.75,13.583c-.451-.501-2.206-.975-2.268.243-.08,1.606 3.101.545 3.559-.248-.529-.55-1.395-.697-2.291-.495" fill="#fff"/>
 <path d="m265.5,12.583c-2.032-.1-4.133-.738-5.803.743 2.549,2.63 5.865-.082 8.494-.242-1.573-.01-3.131-.206-4.658-.213 .074.412.135.534.387.942-.788-.255-.493-.628-.67-1.23" fill="#fff"/>
 <path d="m193,33.333c-2.345-.089-4.679.296-7,.062-1-.101-4.194-1.071-3.079,1.201 .707,1.44 5.601.802 7.078.738 1.418-.062 4.048-.606 2.001-2.25" fill="#fff"/>
 <path d="m262.25,28.083c-.381.087-.646.062-.971.301 .279,1.247 1.966,1.591 3.205,1.412-.266-.699-.791-.968-1.484-1.212" fill="#fff"/>
 <path d="m262.5,70.083c-.29-.661-.586-1.207-.762-1.923 .837,1.938 1.813,3.112-.232,3.923-1.303.517-4.379-.032-5.574-.432-2.414-.809-3.162-1.773-5.938-.755-1.096.402-2.059,1.427-3.249,1.637-.812.143-1.819-.373-2.495-.204-4.016,1.002-1.357,7.785 2.244,8.005 2.064.126 3.287-1.456 5.27-1.012 1.799.403 2.041,2.511 4.241.788 .772,1.893-.366,4.766-.741,6.73-.555,2.904-.861,3.491.86,5.994 1.563,2.274 2.646,4.587 4.376,6.75 1.998,2.5 2.598,5.812 4.499,8.506 1.308,1.851 3.367,3.559 4.188,5.8 .695,1.902.125,4.549 2.355,5.449 2.604,1.051 5.652-1.588 7.764-2.566 2.967-1.376 4.771-2.299 6.68-4.883 1.783-2.414 6.525-4.239 5.764-7.755-.34-1.567-1.574-1.532-2.493-2.851s-.698-2.779-.795-4.413c-2.774-.643-3.938,3.473-7.424,2.925 .313-1.583-1.265-4.661-3.037-3.239-.769-1.164-3.204-6.049-.501-6.246 1.447-.105 3.52,3.376 4.5,4.217 2.104,1.801 2.512.272 4.507.789 1.365.354 3.259,2.957 4.688,3.753 1.674.934 2.902,1.379 5.056,1.264 1.651-.089 4.11-1.955 5.5-1.762 3.399.473 1.976,8.69 7.463,5.544 .179,1.649 1.267,1.694 2.25.751 .55,2.318-.302,4.898 1.038,6.966 .949,1.465 2.609,1.915 3.518,3.507 .899,1.58.357,2.509.47,3.993 .135,1.805.301,4.921 1.458,6.256 1.611,1.859 4.414,1.244 4.591-1.467 2.237.195-2.187,6.352 1.771,6.716 1.746.161 2.641-2.327 2.192-3.755-.431-1.378-1.883-1.928-3.461-2.293 .03-1.314 1.093-2.298 1.224-3.65 .129-1.323-.479-2.209-.693-3.362-.73-3.972 1.177-3.354 3.688-5.495 1.06-.902 1.968-2.417 2.982-3.437 1.254-1.26 1.354-3.289 2.513-4.08 1.575-1.075 2.348.497 3.948.573 1.185.056 1.916-.995 3.257-.717 .812,2.369 1.104,3.208 1.094,5.519-.007,1.495-.062,3.215 1.656,3.96 1.491.646.904-.2 2.35-.454 4.224-.74 3.305,1.218 3.433,4.187 .098,2.273 1.245,3.751 2.762,5.256 2.069,2.054 1.532,2.157 1.495,4.938-.025,1.994.882,3.836 1.499,5.75 .8,2.477 2.373,2.498 3.78,4.543-.35-.51.729,2.922.801,2.457-.129.84-.146,1.457-1.53,1.267-.362-1.062.308-3.854-.014-4.454-.608-1.141-3.288-1.158-4.479-1.75-.828-.41-2.755-1.592-3.306-2.244-.944-1.119-.687-3.703-2.458-3.724-.807,3.291 3.734,4.438 4.712,6.961 .386.996-.051,2.519.494,3.506 .787,1.427 2.538,1.665 3.574,2.981 1.306,1.658 1.202,5.576 3.481,6.462 3.807,1.479 1.988-3.333 2.238-4.911 1.273-.245 2.475.258 3.673.423 .335-2.896-3.104-2.108-4.711-2.711-1.626-.608-1.077.032-1.513-1.75-.161-.659.064-2.151.051-2.956 2.086-.471.217-2.521-.227-3.6-.446-1.088-.57-2.473-1.062-3.438-.638-1.251-2.109-1.483-2.938-2.749-.627-.959-1.047-2.65-1.373-3.744-.598-2-1.562-7.056 2.242-4.468 .597.406.717,1.511 1.318,2.017 .521.439 1.337.478 1.756.879 .993.951 1.965,2.392 1.008,3.777 2.065-.039 1.729-1.652 2.974-2.723 .983-.846 2.651-.798 3.337-1.741 1.744-2.402-.784-7.014-2.322-8.767-1.473-1.678-5.599-5.709-3.006-8.194 .543-.521 2.93-.91 3.271-.056 .155.389-1.854,2.477-2.047,3.263 .896,1.096 2.332,1.521 3.735,1.207 .71-1.53.485-3.22.582-4.913 1.646-.566 3.083-.285 4.774-.543 1.881-.288 2.688-1.214 3.949-2.487 2.187-2.202 5.33-5.771 4.987-9.068-.37-3.57-.974-5.397-3.25-8.2-.881-1.085-5.722-6.403-1.521-6.038-1.758-1.722-4.617-.96-6.946-1.75 .185-1.891.866-3.496 3.122-3.224-.258.789.076,1.947.833,2.517 1.739,1.311 1.467-.312 2.749-.573 3.695-.752 2.539,3.1 4.727,3.611 .318,1.281 1.545,4.532 3.024,4.919 2.579.675 3.151-2.652 3.729-4.151-1.331-.476-1.884-1.543-2.655-2.611-.404-.562-.474-1.133-.808-1.632-.491-.734-1.235-.302-1.51-1.313-1.153-4.262 4.856-2.299 6.017-3.426 1.182-1.147.744-6.638.994-8.311 .381-2.549.58-6.019-1.674-7.536 2.62,1.866 3.066,2.833 4.418,5.522 .771,1.538 1.824,2.718 2.044,4.458 2.748.463.239-2.723-.33-3.463 2.66-1.154-1.228-4.12-2.271-5.743-1.398-2.179-2.52-3.539-5.155-3.969 .106.777-.14,1.456.188,2.167-.394.123-1.043.121-1.438.012-.171-3.11-3.622-3.969-6.037-2.431-1.543-1.56-5.478-5.215-1.505-7.048 2.945-1.359 7.109.927 10.217.48 .691-3.214 9.188,1.489 4.062-5.455 2.004-1.723 2.408.756 3.981.929 2.351.258.194-2.142 2.237-2.392 2.195-.268 4.349,7.498.3,7.249-1.877,3.759 3.417,4.7 5.218,6.644 1.594,1.718 1.637,4.521 3.244,6.037 .477-1.282.336-3.298.301-4.737-.02-.776-.015-1.505-.057-2.237-.044-.77-.676-1.258-.463-2.213 1.863-.242.723-2.51.031-3.537-1.055-1.566-2.844-1.99-2.28-4.212 1.009-.162 2.118.33 2.962.223 .527-.066.773-.958 1.057-.972 .332-.017 1.325.514 1.432.474 1.39-.535 1.031-.55 2.063-1.262 .956-.66 1.795-1.445 2.915-1.543-1.059-1.945-2.445-2.78-2.434-5.419 1.646-.079 3.15-.109 4.717.394 1.202.386 1.888,1.217 3.229,1.031-2.498-3.792-10.924-4.228-15.035-5.524-4.274-1.347-8.865-1.646-13.154-1.4 .12.912.541,1.564.938,2.425-1.844.491-2.23-1.229-2.015-2.675-3.06-.145-5.714,1.258-8.711,1.018-2.649-.212-4.769-1.87-8.001-1.805-3.664.074-4.745-1.489-8.001-2.458-3.704-1.102-8.313,1.96-11.796.211 1.037-.876 2.515-.741 3.727-1.192-.933-.243-6.556-1.008-5.265.405-.531-.578-.44-1.063-.632-1.675 3.301.087 1.385-2.534-.783-2.547-.577-.004-2.434.61-2.521,1.249-.229,1.64 2.842,1.27 3.743,1.293-.247,1.151-1.606,1.525-2.507,2.2 .76,1.34 5.197.96 5.064,2.02-.238,1.896-4.174.669-5.098.311-.621-.241-.695-.957-1.427-1.074-.756-.121-1.647.483-2.056.456-1.809-.119-3.108-1.429-4.707-2.138-3.854-1.708-7.106.191-10.993-.062-1.806-.118-3.117-1.051-5-1.013-1.797.037-3.547.577-5.483.475 .678-.87 2.6-2.311 3.706-2.756-1.448-3.896-13.864-2.613-17.434-2.419-.099,2.655-2.845,2.027-4.722,2.207-2.787.266-4.627,1.932-7.291,2.298 3.992,6.439-6.771-1.568-4.871,3.031-.764.045-2.486.142-2.672,1.178-.285,1.586 2.242,1.68 3.084,2.486 1.801,1.727 1.776,5.635-1.816,4.538-3.904-1.192 2.333-10.971-3.745-9.781-3.175.622-1.741,2.78-1.438,4.951 .344,2.457-.187,3.047-2.019,4.617-1.679,1.438-2.874,2.132-2.298,4.687 .406,1.799 2.061,2.714 2.512,4.488 .739,2.902-.435,6.998-.256,10.005 .334,5.596-2.758,4.28-6.757,3.508-4.12-.795-4.894,3.126-2.95,5.681 .568.747 1.504.741 1.712,1.818 .247,1.275-.676,1.261-.829,1.932-.201.872-.431,1.102-.438,2.019-.005.561.918,1.022.718,2.012-1.654.262-9.625-2.516-9.712-.462" fill="#fff"/>
 <path d="m400,69.833c-.253-1.922-4.377-2.945-5.004-1.005-.322.997 2.572,3.377 3.322,4.436 1.654,2.332 1.673,3.601 1.682,6.569 .01,3.467-1.089,3.349-4.25,4.487-1.084.39-2.29,1.032-3.2,1.764-.514.414-2.046,2.91-2.544,2.966-1.521.172-1.622-2.021-1.261-2.966 .597-1.563 1.862-1.497 3.055-1.989 1.334-.551 2.657-.752 3.388-2.07 .771-1.393-.015-3.026.746-4.455 .52-.979 1.498-1.041 1.822-2.237 .333-1.227-.934-2.516-.773-3.25 .293-1.353 3.106-2.265.769-3.5" fill="#fff"/>
 <path d="m382.25,109.833c-.249-.204-.468-.383-.736-.479-3.296,3.336-.109,3.808 1.187,6.479 .562,1.157.653,3.466.396,4.674 1.076-.842.563-2.302 1.15-2.923 1.146-1.213.742-.381 1.748,0 .515.195 1.029,2.292 2.219,1.022 1.391-1.483-1.177-1.817-1.725-2.022-1.709-.64-4.51.074-4.254-2.764 .113-1.267 1.763-.746 1.483-2.237-.137-.732-2.06-1.484-2.218-1.5" fill="#fff"/>
 <path d="m390.75,125.333c.009.441 1.578,2.087 1.505,2.751-.149,1.36-1.138,1.769-2.204.769 .106.666-.145,1.514-.089,2.192-2.264.345-.979-2.119-2.456-2.467-1.13-.267-1.844,1.182-2.967,1.222-.402-2.674 1.507-2.519 2.955-3.021 1.826-.637 2.361-.035 2.449-2.693 .013-.361-.252-3.279-.426-3.507-1.326-1.74-1.722.347-1.475,1.705 .309,1.694 2.205,1.14-.044,2.3-.623.322-2.901.541-3.449.018-1.096-1.045-.397-3.481 1.205-3.285 .626.078 2.179,2.052 2.744,2.519" fill="#fff"/>
 <path d="m379.5 121.58c1.62 1.718-1.104 3.309-1.468 4.961 1.758-3e-3 4.118-3.76 1.968-4.461" fill="#fff"/>
 <path d="m377,130.333c-1.957.964-1.491,3.916-2.938,5.323-1.084,1.053-3.439,1.229-4.817,2.17-1.464,1-3.321,2.358-3.013,4.317 .477,3.027 2.719,2.672 4.957,2.988 1.516.215 3.623,1.834 4.812,1.699 3.188-.362 1.188-3.454 1.487-5.193 .195-1.129 1.275-1.406 1.529-2.293 .283-.986-.305-2.096-.267-3.074 .067-1.744.378-3.901 2.479-4.252-1.317-1.16-5.787-4.979-4.73-.187" fill="#fff"/>
 <path d="m384,139.083c-1.814.409-2.113,3.88-2.006,5.518 .031.484.499,1.309.449,1.732-.074.639-.69,1.465-.713,1.938-.045.989-.521,3.03 1.33,2.123 1.211-.594.652-2.824.728-4.035 1.376.358 2.044,5.013 3.668,3.74 1.94-1.518-1.666-4.179-2.367-5.072 1.038-.646 1.981-1.778 2.122-2.906-1.797-.465-3.807,2.555-3.71-.844 .045-1.58.517-1.764 2.013-1.938 1.592-.186 1.118.631 2.524.938 4.261.927 2.854-4.201-.044-2.948-1.854.801-1.74,3.685-4.206,3.467-.048-.374-.099-.828-.038-1.212" fill="#fff"/>
 <path d="m393.75,138.583c-.916,2.749 1.2,3.102 1.199,5-.001,1.275-1.784,1.768-1.66,3.212 1.884.251 3.143-1.7 4.697-1.249-1.762-1.472-3.812-.863-3.43-4.213 .103-.907 1.209-2.061.946-3.006-.28-1.01-1.296-1.334-1.754-.494" fill="#fff"/>
 <path d="m402,141.083c-.873-.135-2.109.001-2.705.732-1.828,2.244 1.123,2.014 1.967,2.955 1.057,1.182.366,2.657 2.295,3.316 .873.298 1.793-.536 2.707-.217 .361.126 2.482,2.061 2.756,2.461 1.252,1.845.465,2.624-1.049,4.001 2.375,2.097 4.197.354 4.529-1.927 .367-2.521 1.021-6.353.206-8.799-1.298.717-2.526.181-3.899.476-.678.146-1.099-.03-1.757.301-.498.251-.584,1.552-1.3,1.718-1.833.424-1.5-1.166-2.256-2.506-.961-1.697-1.253-2.311-3.756-1.975 .05.253.221.406.512.462" fill="#fff"/>
 <path d="m408,167.833c-1.4.369-2.122-.398-2.756-1.561-1.109-2.033-.023-1.035.438-2.746 .936-3.475-.978-3.539-4.244-3.693-3.873-.184-4.028.279-5.486,3.684-.336.783-1.327,2.94-2.45,2.848-1.726-.146-.867-3.485-2.237-3.797-2.244-.51-4.044,6.236-5.008,7.51-2.498,3.297-7.89,2.076-10.754,5.765-.789,1.017-1.32,2.55-2.238,3.423-1.078,1.024-2.559,1.096-3.469,2.303-2.415,3.197-.41,7.211-1.025,10.568-.422,2.303.056,4.783-1.186,6.91 4.759.316 6.828-3.597 10.898-4.949 1.83-.607 3.596-1.285 5.48-1.757 .655-.163 1.061-.823 1.787-.766 .907.073.75.983 1.5,1.228 2.197.715 3.912.709 5.688,2.271 1.567,1.376 2.752,6.155 5.073,3.971 1.62,3.492 2.513,3.829 5.751,4.792 2.401.714 4.994.969 7.684.75 3.166-.258 3.9-4.627 6.056-7.057 2.252-2.538 6.243-5.063 7.261-8.139 1.233-3.726 1.459-5.4-1.029-8.561-1.532-1.944-2.258-4.613-3.476-6.995-1.338-2.618-1.854-5.412-2.558-8.243-.502-2.025-.986-5.742-3.133-6.756-.063-.031-.754-.688-.83-.75-1.354,2.238-1.649,8.271-.743,10.691-1.091.175-2.173.461-3.212.795 .13-1.43-1.039-1.795-2.281-1.487" fill="#fff"/>
 <path d="m412.5,153.583c4.619,4.795 3.426-2.658 7.249-1.211 1.306.493 1.657,3.52 2.951,4.461 1.646,1.197 1.221.327 3.225-.3-3.298-1.634-3.817-4.698-5.407-7.195-1.176-1.847-3.215-2.308-4.768-3.198 .518.297-2.053-.596-1.256-.562 .559.023-1.078-.771-.957-.723-.167,2.92.033,5.451-.787,8.229" fill="#fff"/>
 <path d="m429,147.833c-1.416.029-6.502,2.229-4.223,3.949 2.486,1.878 5.396-2.98 6.64-4.411-1.19-.065-2.438-.011-3.642-.071-.01-1.084.057-2.16-.326-3.195-2.188.071-1.266,4.565.551,3.979" fill="#fff"/>
 <path d="m406.5,208.083c-1.621,1.876-2.877-.014-3.756.479-.991.551-1.322,4.539-.318,5.295 1.453,1.096 5.129-4.062 5.147-5.584 .017-1.313-1.052-2.938-2.323-1.438" fill="#fff"/>
 <path d="m441.5,208.083c-1.297,2.093-4.924,3.202-6.806,5.007-1.898,1.821-4.854,3.109-6.382,5.206 4.511.889 6.582-4.518 9.737-6.52 .735-.467 6.611-2.676 3.023-3.707 2.465-.614 4.319-1.793 4.932-4.293 .405-1.659-.849-7.502 2.449-6.654 .305,2.62 2.764,2.939 1.82,6.173 .571-.139 1.389.029 1.953-.185-.96,2.884-3.829,3.354-6.197,4.666-1.605.892-2.759,2.195-4.743,2.019-.048-.372-.102-.83-.038-1.212" fill="#fff"/>
 <path d="m450,164.333c-2.777-1.202-1.544,1.572-.742,2.512 .909,1.066 2.247.937 2.03,2.723 2.406-1.518-.166-4.508-2.038-5.233" fill="#fff"/>
 <path d="m435.25,151.333c-.08,1.343.784,2.298 2.018,2.468 1.128.155-1.736-1.495-.518-1.468" fill="#fff"/>
 <path d="m440.75,153.583c-1.569.064-1.708,1.867-.487,2.536 .241-.354.321-.582.455-.985-.523-.465-.733-.062-.968-.051" fill="#fff"/>
 <path d="m449,174.333c-.333-.08-.202-.287 0-.5" fill="#fff"/>
 <path d="m303.25,14.333c-2.791,1.26-3.919-1.519-6-1.5-1.579.014-2.195,1.136-.711,2.212 .738.536 3.609.099 4.674.325 .126,1.554 2.648,1.384 2.537-.288" fill="#fff"/>
 <path d="m84.75,26.833c-1.536,1.884-6.453.217-8.699.5-1.372.173-2.458.774-3.789.944-2.27.291-2.436-1.159-4.325-1.393-1.562-.194-2.539,1.37-4.125,1.717-2.642.578-2.338-.743-4.568-1.779-2.505-1.165-8.477-1.552-10.231.99-3.915-2.588-6.908-1.094-10.449,1.277-1.496,1.002-3.192,2.615-4.831,3.255-1.313.513-2.037.202-3.44.282-1.099,2.684-4.549-.372-6.592.45-1.247.501-2.448,1.272-1.644,2.769 1.157,2.151 2.771-.362 3.711.271 1.542,1.039-.924,3.167-1.768,3.442-1.689.551-3.065-.429-4.677.258-2.816,1.201-3.429,4.702.139,4.555 .634,2.765-8.375,3.692-9.88,6.736 3.697-.744 5.671-5.012 8.861-6.346 2.497-1.044 3.171,1.122 5.058,1.34 1.362.157 4.138-2.072 5.249-2.829 2.316-1.576 3.241-1.289 5.694-1.37 2.112-.07 10.601-4.019 12.323-.586 .87,1.733-2.169,4.116-2.28,6.036-.167,2.892 1.313,2.574 3.23,3.464-.629,1.521-2.928,4.406-4.93,4.243-.486-3.505 2.511-4.289 2.25-.763 2.022-.43 2.31,1.08 2.175,2.75-.564-.125-1.361.201-1.925.075-.418,1.434.572,1.127.962,2.032 .525,1.217.821.757.694,2.431-.14,1.841-1.162,4.433-2.195,6-1.222,1.853-2.836,3.482-3.755,5.513-1.569,3.469.5,4.313 1.462,7.486 .524,1.729.38,3.552.975,5.308 .917,2.707.464,4.97.874,7.638 .309,2.01 2.003,3.332 2.763,5.318 .828,2.165-.253,4.069 2.174,5.279 2.23-2.05-1.842-6.321-2.437-8.781-.189-.782-.006-2.106-.356-2.771-.345-.654-1.425-.613-1.717-1.283-.502-1.152-.336-3.001.06-4.168 3.258.072 2.752,3.297 3.915,5.709 .971,2.016 1.9,4.428 3.218,6.251 1.646,2.276 2.892,3.689 3.324,6.495s-.806,4.43 1.682,6.067c2.187,1.439 4.925,1.247 7.062,2.174 .998.433 1.955.799 3,1.013 2.195.448 1.766-.141 3.019,1.551 .577.779.176,2.129 1.475,2.718 .95.431 2.651.325 3.562.677 2.944,1.136 4.625,3.255 7.206,4.507 .842.407 1.598,1.032 2.495,1.485 .615.311 1.372.272 1.955.625 .346.211.897,1.336 1.094,1.387 .913.23 5.166-1.389 5.162-2.162-3.368-.17-6.333,1.191-8.468-1.793-2.195-3.07-.013-5.491-.281-8.951-.946-.527-1.605-1.081-2.7-1.061-1.599.028-1.671,1.658-3.513.586-2.896-1.686 1.257-4.411 1.313-7.026 .085-4.009-2.406-1.042-3.869.902-1.648,2.19-3.106,1.924-5.444,1.793-1.066-.059-1.543.878-2.769-.419-.712-.753-.891-2.605-.987-3.63-.237-2.515-1.066-5.783-.188-8.188 .757-2.073 3.473-4.932 5.493-5.506 2.459-.699 5.254-.035 7.45-.495 1.42-.297 1.489-1.222 2.299-1.805 1.753-1.26.907-1.16 3.213-.451 1.735.533 4.033,1.938 5.95,1.539 .618,3.042-.428,5.784.331,8.674 3.722.712.478-8.553.951-10.707 .68-3.098 3.134-3.836 5.541-5.456 1.703-1.146 3.141-3.087 4.452-4.788 1.75-2.271 2.591-1.771 4.764-3.001 1.293-.732 1.494-2.04 2.513-3.016 .827-.792 1.447-.938 2.475-1.482 3.083-1.639 6.745-7.63 10.225-7.474 .053,1.275-1.091,1.751-1.174,2.93 1.936.431 3.332-1.456 4.979-2.175 1.609-.702 3.35-.58 4.479-2.25-1.39-.077-2.822-.006-4.208-.075-.321-1.17-.262-2.25-.076-3.419-.912-.329-1.956-.381-2.924-.331 .02-1.334 2.025-1.482 3.179-1.424-.443,1.92 1.951,3.162 2.507,1.199-.73-.481-1.443-.816-2.205-1.03 2.082-2.802 8.391.203 10.992-3.119-.424,3.506-3.307,3.19-4.774,5.35-2.559,3.766 3.68,1.375 4.98,1.344-.07.427.142,1.007.07,1.43 5.368.559.423-4.747.212-5.95-.248-1.416.671-2.641.694-4.013 .031-1.885-.678-2.359-1.682-3.514-.894-1.029-1.179-.435-1.513-2.23-.233-1.253.44-2.807-.689-3.768-1.64-1.395-1.851.279-3.068.767-1.207.484-2.404.541-3.959.457 .278-.519.434-1.604.684-2.162-2.872-1.104-2.636-4.873-6.718-4.55-2.061.163-2.605.814-3.569,2.75-.27.542-.419,1.642-.663,2.013-.4.608-1.572.766-1.78,1.475-.518,1.766 1.021,2.444-.245,4.263-1.208,1.737-2.999,1.076-4.242,2.286-1.182,1.15-.401,2.575-1.296,3.907-.882,1.313-3.584,2.594-5.172,2.285 .052-1.962 1.261-4.682 2.373-6.303-1.167-.613-2.688-.56-3.924-.201-.947-2.283-2.079-2.579-4.455-3.019 .074-.278.086-.671.199-.974-2.342-.272-1.413-2.883-.492-3.72 .83-.753 1.977-.964 2.748-1.758 .705-.725 1.005-1.546 1.746-2.243 1.147-1.079 4.217-3.091 5.761-3.58 1.897-.601 3.48.331 4.973-1.412-1.627,3.636 1.078,3.354 4.039,1.955 .224.279.775.523 1.002.805 2.111-1.726-2.294-2.188-3.249-3.781 1.43-1.265 2.776-.737 4.304-1.243 1.123-.372 1.883-.999 2.926-1.688 2.443-1.613 4.962-2.513 5.992,1.145-.556.041-1.157.356-1.703.343 .874.762 2.567.493 3.692.227 .762,3.119-4.721.967-3.245,4.18-.994.059-4.138-.938-4.68.283-1.218,2.741 4.672.684 4.967.737 2.518.457 3.068,5.584 7.237,3.017-.938-.995-2.151-2.079-3.222-3.073 1.537-.514 4.611,1.298 5.442-.676 .704-1.673-1.704-1.965-.919-3.457 1.37-.207 2.302.894 3.761.956 1.612.068 3.807-.744 4.736-2.011-1.446-1.474-3.846-.925-5.753-1.025-.018-.871.233-1.734.687-2.475-1.626-.933-2.481-1.526-3.911-2.806-1.453-1.299-1.624-1.411-3.775-1.47 .047-.347-.122-.828-.075-1.175-4.407-.223-7.504,1.243-10.741,3.874 .788-1.178 2.321-2.097 2.49-3.374-3.16-.587-5.417,1.226-4.924,4.675 2.403-.166 1.927,1.422.713,2.551-1.488,1.384-3.473.827-5.208,1.704-.205-1.14.543-1.973.279-2.979-.44-1.675-2.174-.245-1.065-2.744 .606-1.368 3.532-2.937 4.984-3.693-2.67-.199-2.632.336-4.437,1.762-1.265.999-2.941,1.161-4.109,2.388-1.596,1.676.25,1.595-.933,3.361-1.299,1.938-4.188.618-1.214-1.074-.733-.299-1.691-.617-2.51-.705 .32,2.343-.899,3.138-2.988,3.167-.292.004-.384-.708-.85-.724-.595-.02-1.122.413-1.7.329-.723-.104-1.447.064-2.224-.342 .654-2.441 4.244-.031 4.967-2.969 .62-2.518-1.224-2.187 1.93-4.193-1.186-.092-2.449-.078-3.648-.013-.129,2.901-2.844-.254-4.006-.311-.84-.041-1.139,1.052-1.974,1.051-.617,0-.55-.707-.839-.729-.891-.067-1.954-.282-2.9-.355-2.248-.174-8.933-.656-7.974,3.768 1.681.299 3.068-1.169 4.413-.968 1.538.23 1.241,1.32 2.512,2 1.975,1.056 5.22-1.506 4.455,2.474-2.549.088-3.863,1.649-6.46,1.1-1.573-.333-4.201-2.114-3.501-3.068" fill="#fff"/>
 <path d="m97.75,107.083c-.335-1.069-1.483-1.959-2.556-2.457-.525-.244-1.502.253-1.957-.026-.626-.384-.523-1.296-1.238-1.773-.855-.571-8.527-1.882-7.778.511 .193.619 6.849.231 8.096.978 .956.572 1.191,1.676 2.432,2.205 1.081.461 3.596,1.042 3-.688" fill="#fff"/>
 <path d="m95.5,110.083c-1.97-1.255-4.658.434-2.311,1.767 1.816,1.031 3.357-.886 1.811-2.267" fill="#fff"/>
 <path d="m111.71,110.115c.359.096-.289,2.52-2.087,1.393-1.837-1.151 1.253-1.616 2.087-1.393z" fill="#fff"/>
 <path d="m105.75,108.333c-1.308-.878-7.25-1.773-6.999.5 .366,3.315 6.246-.305 7.936.475 .183-.231.203-.471.313-.725" fill="#fff"/>
 <path d="m114.25 111.83h0.25" fill="#fff"/>
 <path d="m117,114.083c.187-.02.27.063.25.25" fill="#fff"/>
 <path d="m103.25,20.083c-1.438-.785-5.858-5.357-7.461-2.054-1.544,3.182 8.595,2.953 10.412,2.084 .149.114.416.38.557.5 1.402-.917.72-2.608-.939-2.492-1.382.097-2.492,3.338-3.568,1.711" fill="#fff"/>
 <path d="m107.5,15.333c-.942-.381-5.62-.198-3.448,1.712 1.055.928 5.021-.281 5.17-1.663-.833-.442-1.783-.609-2.722-.55" fill="#fff"/>
 <path d="m111.5,18.083c-4.198.286 4.209,4.701 4.48.732-1.57-.579-3.725-.183-5.442-.27-.054-.316-.056-.636-.038-.962" fill="#fff"/>
 <path d="m116.5,15.083c-1.237-1.649-3.452.066-2.28,1.462 .724.862 4.557.295 5.022-.663-1.224-.341-2.606-1.917-3.492-1.05" fill="#fff"/>
 <path d="m124.5,19.083c-1.601-.134-2.366-2.042-3.993-1.187-1.638.862-1.21,2.927.175,3.754 1.576.941 9.751.694 11.048-.269-1.275-.163-1.862-1.239-3.019-1.567-1.554-.44-4.067,1.184-4.711-.481" fill="#fff"/>
 <path d="m129.75,13.083c-1.966-.961-4.904.423-5.485,2.768 1.431.839 2.998.841 4.485,1.689 1.039.592 1.624,1.555 2.426,2.105 3.448,2.363 3.534-.478 5.824-2.268 2.681-2.095 7.872-2.757 10.962-3.729 2.254-.709 7.261-.349 8.522-2.252-2.943-1.981-7.932-.229-11.17.182-2.368.3-3.59-.118-5.847-.269-3.935-.264-12.116,4.795-14.967,2.524" fill="#fff"/>
 <path d="m154.5,24.333c-1.71.229-1.58,2.115-.039,2.542-.287.948.383,2.038.075,2.702-.569,1.228-2.603,1.566-3.11,2.757-.577,1.354.271,2.049.51,3.25 .252,1.271-.077,3.017.313,4.249 .832,2.625 4.239,2.57 6.499.95 1.763-1.264 2.368-4.735 3.756-5.673 1.291-.873 3.01-.002 4.708-.515 5.713-1.724 11.358-5.598 17.088-7.211 1.929-.543 2.259.561 3.644-1.295 .557-.746 1.218-2.354 1.755-3.25 1.259-2.104-.242-1.105 2.294-1.987 2.648-.921 1.414-1.005 2.294-3.019 1.449-3.315 4.319-4.043 7.449-4.932-1.345-.468-2.549-1.295-3.991-1.322-1.053-.02-2.313.977-3.263.771-.675-.146-1.347-1.217-1.982-1.517-1.027-.485-1.538-.384-2.732-.502-6.972-.69-13.937-.922-20.718.5-2.096.439-4.663.148-6.623.739-1.31.395-3.201,1.538-4.732,1.958-.808.222-1.666.442-2.486.611-1.607.331-1.418.133-2.972.125-2.554-.012-4.985,1.387-.733,2.124-1.504,1.582-5.339.363-7.439.676-.924.138-2.802.279-2.491,1.505 .419,1.651 5.263,1.127 6.414,1.014 1.111-.109 2.17-.504 3.278-.574 2.207-.14 1.484-.196 2.493,1.018 .875,1.054.666,2.438.743,3.057" fill="#fff"/>
 <path d="m197,56.083c1.076-2.117 3.062-1.336 3.986-2.75 .755-1.155.705-3.744.22-4.957-1.958-.508-3.586.906-3.244,2.918-1.935-.794-4.093.376-1.433,1.782-.921.542-1.608,1.527-1.248,2.719 .914.118 1.762-.138 2.468-.712" fill="none" stroke="#000" stroke-linecap="round" stroke-linejoin="round" stroke-miterlimit="10" stroke-width="1.5"/>
 <path d="m204.75,44.333c-1.877-.678-2.598-.053-2.75,1.75-.195,2.311 1.309,2.049 2.193,3.764 1.872,3.63-3.195,3.833-2.737,7.193-.231.128-.399.134-.618.306 2.237.022 3.865-.719 5.912-1.25 2-.519 4.921-.511 2.999-2.95-.582-.738-2.083-.81-2.692-1.632-.735-.992-.24-1.523-.557-2.681-.292-1.065-1.486-4.847-2.5-5.25" fill="none" stroke="#000" stroke-linecap="round" stroke-linejoin="round" stroke-miterlimit="10" stroke-width="1.5"/>
 <path d="m225.25,31.583c-1.508,2.171-2.83,4.95-5.5,5.763-2.348.715-4.197-.119-5.256,2.731-1.15,3.095.841,3.99 3.562,3.755 2.25-.194 5.024-2.384 5.693.251 .465,1.83-1.769,4.524 1.501,5.006 2.842.418 4.569-3.783 5.188-6.006 .585-2.106-.945-4.235.002-5.756 .316-.508 1.824-.967 2.38-1.488 .632-.593 1.039-2.427 1.979-2.705 4.396-1.303-.485,4.557-.562,5.199-.104.862 1.047,3.034 1.513,3.255 1.574.747 2.584-.939 3.743-1.317 2.6-.847 5.105,1.879 2.006,2.511-1.26.257-6.441-2.279-5.961,1.513 .91.057 1.795.136 2.674.325 .232.484.35,1.387.249,1.925-.312.013-.604.018-.919,0-.441-.693-.816-1.443-1.08-2.175-2.427-.449-2.007,2.332-1.919,3.919 2.47,1.301-1.313,1.749-2.294,1.793-1.895.087-3.379.478-5.25.5-.854.01-1.759-.376-2.556-.261-.769.111-2.082,1.304-2.75,1.204-2.939-.438.32-2.428 1.341-2.943-.698-.347-2.063-.327-2.484-.994-.329-.521.293-2.218.161-2.967-2.272-.432-3.414,2.039-3.218,3.962 .301,2.955 1.924,2.57-1.244,3.75-2.473.921-2.041,1.984-4.062,3.693-1.471,1.245-4.047,1.529-4.226,4.018-1.432-.06-3.1-4.344-2.75.251-1.935.047-4.45.159-2.211,2.238 .795.739 1.725.054 2.506,1.042 .627.794.497,1.774.493,2.757-.013,3.206-.673,2.57-3.25,2.056-1.862-.372-4.322-.812-6.212-.518-.19,3.786-1.572,7.359-1.5,11.175 2.411.764 3.623-1.588 5.975-1.225 .891.138 1.47,1.274 2.482,1.28 1.491.009 3.03-1.613 3.937-2.586 1.417-1.521 1.144-3.18 2.374-4.694 1.306-1.608 4.197-.961 4.481-3.45 .913-.049 2.361.248 3.213-.088 1.084-.428 1.392-1.979 2.182-2.272 2.351-.874 3.207,1.786 4.13,3.33 1.289,2.156 3.234,1.825 4.619,3.556 1.846,2.308-.798,3.203-1.392,5.15 3.218.414 2.881-3.239 2.999-5.425 1.206.212 1.866,1.192 2.467-.033 1.031-2.107-1.292-2.758-2.561-3.005-2.549-.496-4.669-.051-6.257-2.736-.65-1.1-1.292-2.28.562-2.524 1.249-.165 2.982,2.293 4.013,2.955 .89.572 1.939.704 2.73,1.355 1.064.878 1.27,2.293 2.293,3.187-3.241,3.894 3.792,7.412 6.92,7.22 .218-.675.607-1.375.764-1.749-.477-1.175-3.334-2.702-2.681-4.212 .387-.895 4.312-1.088 5.019-1.488 1.295-.737 3.036-2.217 3.442-3.507 .606-1.93-.683-4.052 2.506-3.762 1.754.16 2.394,2.42 3.794,2.712s1.489-1.053 2.25-1.163c1.311-.19 1.79.283 2.895.769 4.473,1.964 9.375,1.671 14.013,2.912 .129-1.334-1.19-1.713-1.212-2.968-.021-1.198.838-1.919 1.541-2.763-1.545-1.258-3.549-2.311-3.534-4.487 .019-2.606 2.651-3.943 5.013-3.75 2.34.191 3.971,2.394 5.992.306 1.987-2.051.165-3.986.245-6.306 .12-3.479.886-4.44-.757-7.938-1.233-2.625-2.693-4.829-.994-7.263 .775-1.11 5.312-3.908 4.518-5.562-.658-1.372-4.961-.696-6.268-1.043-1.809-.481-2.9-1.004-4.967-.907 .179.789.557,1.265 1.428,1.504-.249,2.524-5.156-.209-6.911.258-2.276.606-4.478,3.692-6.512,4.168-.228-1.033.347-1.99.869-2.779-.483-.511-2.526-1.645-3.119-.706-.738,1.167 1.575,1.36 1.424,2.73-2.499.046-3.717.526-5.937,1.6 .728.505.923,1.214 1.186,1.9-1.291-.023-1.322-2.278-2.66-1.662-.895.413-.537,2.3-.34,2.912-2.009.185-2.251-3.137-3.441-4.413 1.672-.117 4.4.553 5.98-.051 2.311-.883 1.625-2.582-.5-3.68-2.812-1.452-6.243-.726-9.25-1.5-3.423-.881-6.434-1.516-10.068-.638-2.752.664-7.244,1.486-9.468,3.055 .557.68 1.533.642 2.508.551-.515,1.452-2.441,1.54-3.472,2.645-1.062,1.139-.635,2.458-1.75,3.568" fill="none" stroke="#000" stroke-linecap="round" stroke-linejoin="round" stroke-miterlimit="10" stroke-width="1.5"/>
 <path d="m219.5,71.083c-1.312.972-1.353,5.145 1.224,4.405 .308-1.357-.192-2.824-1.724-2.905" fill="none" stroke="#000" stroke-linecap="round" stroke-linejoin="round" stroke-miterlimit="10" stroke-width="1.5"/>
 <path d="m242.75,81.333c-1.396.09-2.784-.672-3.984-.263 .959.957 4.414,1.865 5.728.818-1.437-.118-2.659-.983-3.242-2.306" fill="none" stroke="#000" stroke-linecap="round" stroke-linejoin="round" stroke-miterlimit="10" stroke-width="1.5"/>
 <path d="m268.75,26.333c-1.373.33-4.602.579-5.018-1.487-.43-2.127 2.263-2.209 3.461-3.312 .621-.572.511-1.403 1.363-2.018 .893-.644 2.467-.77 3.506-.938 1.637-.265 4.051-.984 5.672-.707-2.387,2.992-8.09,1.838-10.291,5.199-1.074,1.641.076,4.124-.693,5.264" fill="none" stroke="#000" stroke-linecap="round" stroke-linejoin="round" stroke-miterlimit="10" stroke-width="1.5"/>
 <path d="m228.75,14.583c-1.9,0-3.827-.059-5.712.038-.428,1.986 2.044,7.052 4.786,5.486 1.445-.825.701-3.656 2.927-3.779 1.812-.1 1.325,1.557 2.962,1.912 .258-1.895-2.165-1.549-2.678-2.869 1.348-.065 4.044.58 4.189-1.25-2.972-.162-6.848-.358-9.475.462" fill="none" stroke="#000" stroke-linecap="round" stroke-linejoin="round" stroke-miterlimit="10" stroke-width="1.5"/>
 <path d="m255.75,13.583c-.451-.501-2.206-.975-2.268.243-.08,1.606 3.101.545 3.559-.248-.529-.55-1.395-.697-2.291-.495" fill="none" stroke="#000" stroke-linecap="round" stroke-linejoin="round" stroke-miterlimit="10" stroke-width="1.5"/>
 <path d="m265.5,12.583c-2.032-.1-4.133-.738-5.803.743 2.549,2.63 5.865-.082 8.494-.242-1.573-.01-3.131-.206-4.658-.213 .074.412.135.534.387.942-.788-.255-.493-.628-.67-1.23" fill="none" stroke="#000" stroke-linecap="round" stroke-linejoin="round" stroke-miterlimit="10" stroke-width="1.5"/>
 <path d="m193,33.333c-2.345-.089-4.679.296-7,.062-1-.101-4.194-1.071-3.079,1.201 .707,1.44 5.601.802 7.078.738 1.418-.062 4.048-.606 2.001-2.25" fill="none" stroke="#000" stroke-linecap="round" stroke-linejoin="round" stroke-miterlimit="10" stroke-width="1.5"/>
 <path d="m262.25,28.083c-.381.087-.646.062-.971.301 .279,1.247 1.966,1.591 3.205,1.412-.266-.699-.791-.968-1.484-1.212" fill="none" stroke="#000" stroke-linecap="round" stroke-linejoin="round" stroke-miterlimit="10" stroke-width="1.5"/>
 <path d="m262.5,70.083c-.29-.661-.586-1.207-.762-1.923 .837,1.938 1.813,3.112-.232,3.923-1.303.517-4.379-.032-5.574-.432-2.414-.809-3.162-1.773-5.938-.755-1.096.402-2.059,1.427-3.249,1.637-.812.143-1.819-.373-2.495-.204-4.016,1.002-1.357,7.785 2.244,8.005 2.064.126 3.287-1.456 5.27-1.012 1.799.403 2.041,2.511 4.241.788 .772,1.893-.366,4.766-.741,6.73-.555,2.904-.861,3.491.86,5.994 1.563,2.274 2.646,4.587 4.376,6.75 1.998,2.5 2.598,5.812 4.499,8.506 1.308,1.851 3.367,3.559 4.188,5.8 .695,1.902.125,4.549 2.355,5.449 2.604,1.051 5.652-1.588 7.764-2.566 2.967-1.376 4.771-2.299 6.68-4.883 1.783-2.414 6.525-4.239 5.764-7.755-.34-1.567-1.574-1.532-2.493-2.851s-.698-2.779-.795-4.413c-2.774-.643-3.938,3.473-7.424,2.925 .313-1.583-1.265-4.661-3.037-3.239-.769-1.164-3.204-6.049-.501-6.246 1.447-.105 3.52,3.376 4.5,4.217 2.104,1.801 2.512.272 4.507.789 1.365.354 3.259,2.957 4.688,3.753 1.674.934 2.902,1.379 5.056,1.264 1.651-.089 4.11-1.955 5.5-1.762 3.399.473 1.976,8.69 7.463,5.544 .179,1.649 1.267,1.694 2.25.751 .55,2.318-.302,4.898 1.038,6.966 .949,1.465 2.609,1.915 3.518,3.507 .899,1.58.357,2.509.47,3.993 .135,1.805.301,4.921 1.458,6.256 1.611,1.859 4.414,1.244 4.591-1.467 2.237.195-2.187,6.352 1.771,6.716 1.746.161 2.641-2.327 2.192-3.755-.431-1.378-1.883-1.928-3.461-2.293 .03-1.314 1.093-2.298 1.224-3.65 .129-1.323-.479-2.209-.693-3.362-.73-3.972 1.177-3.354 3.688-5.495 1.06-.902 1.968-2.417 2.982-3.437 1.254-1.26 1.354-3.289 2.513-4.08 1.575-1.075 2.348.497 3.948.573 1.185.056 1.916-.995 3.257-.717 .812,2.369 1.104,3.208 1.094,5.519-.007,1.495-.062,3.215 1.656,3.96 1.491.646.904-.2 2.35-.454 4.224-.74 3.305,1.218 3.433,4.187 .098,2.273 1.245,3.751 2.762,5.256 2.069,2.054 1.532,2.157 1.495,4.938-.025,1.994.882,3.836 1.499,5.75 .8,2.477 2.373,2.498 3.78,4.543-.35-.51.729,2.922.801,2.457-.129.84-.146,1.457-1.53,1.267-.362-1.062.308-3.854-.014-4.454-.608-1.141-3.288-1.158-4.479-1.75-.828-.41-2.755-1.592-3.306-2.244-.944-1.119-.687-3.703-2.458-3.724-.807,3.291 3.734,4.438 4.712,6.961 .386.996-.051,2.519.494,3.506 .787,1.427 2.538,1.665 3.574,2.981 1.306,1.658 1.202,5.576 3.481,6.462 3.807,1.479 1.988-3.333 2.238-4.911 1.273-.245 2.475.258 3.673.423 .335-2.896-3.104-2.108-4.711-2.711-1.626-.608-1.077.032-1.513-1.75-.161-.659.064-2.151.051-2.956 2.086-.471.217-2.521-.227-3.6-.446-1.088-.57-2.473-1.062-3.438-.638-1.251-2.109-1.483-2.938-2.749-.627-.959-1.047-2.65-1.373-3.744-.598-2-1.562-7.056 2.242-4.468 .597.406.717,1.511 1.318,2.017 .521.439 1.337.478 1.756.879 .993.951 1.965,2.392 1.008,3.777 2.065-.039 1.729-1.652 2.974-2.723 .983-.846 2.651-.798 3.337-1.741 1.744-2.402-.784-7.014-2.322-8.767-1.473-1.678-5.599-5.709-3.006-8.194 .543-.521 2.93-.91 3.271-.056 .155.389-1.854,2.477-2.047,3.263 .896,1.096 2.332,1.521 3.735,1.207 .71-1.53.485-3.22.582-4.913 1.646-.566 3.083-.285 4.774-.543 1.881-.288 2.688-1.214 3.949-2.487 2.187-2.202 5.33-5.771 4.987-9.068-.37-3.57-.974-5.397-3.25-8.2-.881-1.085-5.722-6.403-1.521-6.038-1.758-1.722-4.617-.96-6.946-1.75 .185-1.891.866-3.496 3.122-3.224-.258.789.076,1.947.833,2.517 1.739,1.311 1.467-.312 2.749-.573 3.695-.752 2.539,3.1 4.727,3.611 .318,1.281 1.545,4.532 3.024,4.919 2.579.675 3.151-2.652 3.729-4.151-1.331-.476-1.884-1.543-2.655-2.611-.404-.562-.474-1.133-.808-1.632-.491-.734-1.235-.302-1.51-1.313-1.153-4.262 4.856-2.299 6.017-3.426 1.182-1.147.744-6.638.994-8.311 .381-2.549.58-6.019-1.674-7.536 2.62,1.866 3.066,2.833 4.418,5.522 .771,1.538 1.824,2.718 2.044,4.458 2.748.463.239-2.723-.33-3.463 2.66-1.154-1.228-4.12-2.271-5.743-1.398-2.179-2.52-3.539-5.155-3.969 .106.777-.14,1.456.188,2.167-.394.123-1.043.121-1.438.012-.171-3.11-3.622-3.969-6.037-2.431-1.543-1.56-5.478-5.215-1.505-7.048 2.945-1.359 7.109.927 10.217.48 .691-3.214 9.188,1.489 4.062-5.455 2.004-1.723 2.408.756 3.981.929 2.351.258.194-2.142 2.237-2.392 2.195-.268 4.349,7.498.3,7.249-1.877,3.759 3.417,4.7 5.218,6.644 1.594,1.718 1.637,4.521 3.244,6.037 .477-1.282.336-3.298.301-4.737-.02-.776-.015-1.505-.057-2.237-.044-.77-.676-1.258-.463-2.213 1.863-.242.723-2.51.031-3.537-1.055-1.566-2.844-1.99-2.28-4.212 1.009-.162 2.118.33 2.962.223 .527-.066.773-.958 1.057-.972 .332-.017 1.325.514 1.432.474 1.39-.535 1.031-.55 2.063-1.262 .956-.66 1.795-1.445 2.915-1.543-1.059-1.945-2.445-2.78-2.434-5.419 1.646-.079 3.15-.109 4.717.394 1.202.386 1.888,1.217 3.229,1.031-2.498-3.792-10.924-4.228-15.035-5.524-4.274-1.347-8.865-1.646-13.154-1.4 .12.912.541,1.564.938,2.425-1.844.491-2.23-1.229-2.015-2.675-3.06-.145-5.714,1.258-8.711,1.018-2.649-.212-4.769-1.87-8.001-1.805-3.664.074-4.745-1.489-8.001-2.458-3.704-1.102-8.313,1.96-11.796.211 1.037-.876 2.515-.741 3.727-1.192-.933-.243-6.556-1.008-5.265.405-.531-.578-.44-1.063-.632-1.675 3.301.087 1.385-2.534-.783-2.547-.577-.004-2.434.61-2.521,1.249-.229,1.64 2.842,1.27 3.743,1.293-.247,1.151-1.606,1.525-2.507,2.2 .76,1.34 5.197.96 5.064,2.02-.238,1.896-4.174.669-5.098.311-.621-.241-.695-.957-1.427-1.074-.756-.121-1.647.483-2.056.456-1.809-.119-3.108-1.429-4.707-2.138-3.854-1.708-7.106.191-10.993-.062-1.806-.118-3.117-1.051-5-1.013-1.797.037-3.547.577-5.483.475 .678-.87 2.6-2.311 3.706-2.756-1.448-3.896-13.864-2.613-17.434-2.419-.099,2.655-2.845,2.027-4.722,2.207-2.787.266-4.627,1.932-7.291,2.298 3.992,6.439-6.771-1.568-4.871,3.031-.764.045-2.486.142-2.672,1.178-.285,1.586 2.242,1.68 3.084,2.486 1.801,1.727 1.776,5.635-1.816,4.538-3.904-1.192 2.333-10.971-3.745-9.781-3.175.622-1.741,2.78-1.438,4.951 .344,2.457-.187,3.047-2.019,4.617-1.679,1.438-2.874,2.132-2.298,4.687 .406,1.799 2.061,2.714 2.512,4.488 .739,2.902-.435,6.998-.256,10.005 .334,5.596-2.758,4.28-6.757,3.508-4.12-.795-4.894,3.126-2.95,5.681 .568.747 1.504.741 1.712,1.818 .247,1.275-.676,1.261-.829,1.932-.201.872-.431,1.102-.438,2.019-.005.561.918,1.022.718,2.012-1.654.262-9.625-2.516-9.712-.462" fill="none" stroke="#000" stroke-linecap="round" stroke-linejoin="round" stroke-miterlimit="10" stroke-width="1.5"/>
 <path d="m400,69.833c-.253-1.922-4.377-2.945-5.004-1.005-.322.997 2.572,3.377 3.322,4.436 1.654,2.332 1.673,3.601 1.682,6.569 .01,3.467-1.089,3.349-4.25,4.487-1.084.39-2.29,1.032-3.2,1.764-.514.414-2.046,2.91-2.544,2.966-1.521.172-1.622-2.021-1.261-2.966 .597-1.563 1.862-1.497 3.055-1.989 1.334-.551 2.657-.752 3.388-2.07 .771-1.393-.015-3.026.746-4.455 .52-.979 1.498-1.041 1.822-2.237 .333-1.227-.934-2.516-.773-3.25 .293-1.353 3.106-2.265.769-3.5" fill="none" stroke="#000" stroke-linecap="round" stroke-linejoin="round" stroke-miterlimit="10" stroke-width="1.5"/>
 <path d="m382.25,109.833c-.249-.204-.468-.383-.736-.479-3.296,3.336-.109,3.808 1.187,6.479 .562,1.157.653,3.466.396,4.674 1.076-.842.563-2.302 1.15-2.923 1.146-1.213.742-.381 1.748,0 .515.195 1.029,2.292 2.219,1.022 1.391-1.483-1.177-1.817-1.725-2.022-1.709-.64-4.51.074-4.254-2.764 .113-1.267 1.763-.746 1.483-2.237-.137-.732-2.06-1.484-2.218-1.5" fill="none" stroke="#000" stroke-linecap="round" stroke-linejoin="round" stroke-miterlimit="10" stroke-width="1.5"/>
 <path d="m390.75,125.333c.009.441 1.578,2.087 1.505,2.751-.149,1.36-1.138,1.769-2.204.769 .106.666-.145,1.514-.089,2.192-2.264.345-.979-2.119-2.456-2.467-1.13-.267-1.844,1.182-2.967,1.222-.402-2.674 1.507-2.519 2.955-3.021 1.826-.637 2.361-.035 2.449-2.693 .013-.361-.252-3.279-.426-3.507-1.326-1.74-1.722.347-1.475,1.705 .309,1.694 2.205,1.14-.044,2.3-.623.322-2.901.541-3.449.018-1.096-1.045-.397-3.481 1.205-3.285 .626.078 2.179,2.052 2.744,2.519" fill="none" stroke="#000" stroke-linecap="round" stroke-linejoin="round" stroke-miterlimit="10" stroke-width="1.5"/>
 <path d="m379.5 121.58c1.62 1.718-1.104 3.309-1.468 4.961 1.758-3e-3 4.118-3.76 1.968-4.461" fill="none" stroke="#000" stroke-linecap="round" stroke-linejoin="round" stroke-miterlimit="10" stroke-width="1.5"/>
 <path d="m377,130.333c-1.957.964-1.491,3.916-2.938,5.323-1.084,1.053-3.439,1.229-4.817,2.17-1.464,1-3.321,2.358-3.013,4.317 .477,3.027 2.719,2.672 4.957,2.988 1.516.215 3.623,1.834 4.812,1.699 3.188-.362 1.188-3.454 1.487-5.193 .195-1.129 1.275-1.406 1.529-2.293 .283-.986-.305-2.096-.267-3.074 .067-1.744.378-3.901 2.479-4.252-1.317-1.16-5.787-4.979-4.73-.187" fill="none" stroke="#000" stroke-linecap="round" stroke-linejoin="round" stroke-miterlimit="10" stroke-width="1.5"/>
 <path d="m384,139.083c-1.814.409-2.113,3.88-2.006,5.518 .031.484.499,1.309.449,1.732-.074.639-.69,1.465-.713,1.938-.045.989-.521,3.03 1.33,2.123 1.211-.594.652-2.824.728-4.035 1.376.358 2.044,5.013 3.668,3.74 1.94-1.518-1.666-4.179-2.367-5.072 1.038-.646 1.981-1.778 2.122-2.906-1.797-.465-3.807,2.555-3.71-.844 .045-1.58.517-1.764 2.013-1.938 1.592-.186 1.118.631 2.524.938 4.261.927 2.854-4.201-.044-2.948-1.854.801-1.74,3.685-4.206,3.467-.048-.374-.099-.828-.038-1.212" fill="none" stroke="#000" stroke-linecap="round" stroke-linejoin="round" stroke-miterlimit="10" stroke-width="1.5"/>
 <path d="m393.75,138.583c-.916,2.749 1.2,3.102 1.199,5-.001,1.275-1.784,1.768-1.66,3.212 1.884.251 3.143-1.7 4.697-1.249-1.762-1.472-3.812-.863-3.43-4.213 .103-.907 1.209-2.061.946-3.006-.28-1.01-1.296-1.334-1.754-.494" fill="none" stroke="#000" stroke-linecap="round" stroke-linejoin="round" stroke-miterlimit="10" stroke-width="1.5"/>
 <path d="m402,141.083c-.873-.135-2.109.001-2.705.732-1.828,2.244 1.123,2.014 1.967,2.955 1.057,1.182.366,2.657 2.295,3.316 .873.298 1.793-.536 2.707-.217 .361.126 2.482,2.061 2.756,2.461 1.252,1.845.465,2.624-1.049,4.001 2.375,2.097 4.197.354 4.529-1.927 .367-2.521 1.021-6.353.206-8.799-1.298.717-2.526.181-3.899.476-.678.146-1.099-.03-1.757.301-.498.251-.584,1.552-1.3,1.718-1.833.424-1.5-1.166-2.256-2.506-.961-1.697-1.253-2.311-3.756-1.975 .05.253.221.406.512.462" fill="none" stroke="#000" stroke-linecap="round" stroke-linejoin="round" stroke-miterlimit="10" stroke-width="1.5"/>
 <path d="m408,167.833c-1.4.369-2.122-.398-2.756-1.561-1.109-2.033-.023-1.035.438-2.746 .936-3.475-.978-3.539-4.244-3.693-3.873-.184-4.028.279-5.486,3.684-.336.783-1.327,2.94-2.45,2.848-1.726-.146-.867-3.485-2.237-3.797-2.244-.51-4.044,6.236-5.008,7.51-2.498,3.297-7.89,2.076-10.754,5.765-.789,1.017-1.32,2.55-2.238,3.423-1.078,1.024-2.559,1.096-3.469,2.303-2.415,3.197-.41,7.211-1.025,10.568-.422,2.303.056,4.783-1.186,6.91 4.759.316 6.828-3.597 10.898-4.949 1.83-.607 3.596-1.285 5.48-1.757 .655-.163 1.061-.823 1.787-.766 .907.073.75.983 1.5,1.228 2.197.715 3.912.709 5.688,2.271 1.567,1.376 2.752,6.155 5.073,3.971 1.62,3.492 2.513,3.829 5.751,4.792 2.401.714 4.994.969 7.684.75 3.166-.258 3.9-4.627 6.056-7.057 2.252-2.538 6.243-5.063 7.261-8.139 1.233-3.726 1.459-5.4-1.029-8.561-1.532-1.944-2.258-4.613-3.476-6.995-1.338-2.618-1.854-5.412-2.558-8.243-.502-2.025-.986-5.742-3.133-6.756-.063-.031-.754-.688-.83-.75-1.354,2.238-1.649,8.271-.743,10.691-1.091.175-2.173.461-3.212.795 .13-1.43-1.039-1.795-2.281-1.487" fill="none" stroke="#000" stroke-linecap="round" stroke-linejoin="round" stroke-miterlimit="10" stroke-width="1.5"/>
 <path d="m412.5,153.583c4.619,4.795 3.426-2.658 7.249-1.211 1.306.493 1.657,3.52 2.951,4.461 1.646,1.197 1.221.327 3.225-.3-3.298-1.634-3.817-4.698-5.407-7.195-1.176-1.847-3.215-2.308-4.768-3.198 .518.297-2.053-.596-1.256-.562 .559.023-1.078-.771-.957-.723-.167,2.92.033,5.451-.787,8.229" fill="none" stroke="#000" stroke-linecap="round" stroke-linejoin="round" stroke-miterlimit="10" stroke-width="1.5"/>
 <path d="m429,147.833c-1.416.029-6.502,2.229-4.223,3.949 2.486,1.878 5.396-2.98 6.64-4.411-1.19-.065-2.438-.011-3.642-.071-.01-1.084.057-2.16-.326-3.195-2.188.071-1.266,4.565.551,3.979" fill="none" stroke="#000" stroke-linecap="round" stroke-linejoin="round" stroke-miterlimit="10" stroke-width="1.5"/>
 <path d="m406.5,208.083c-1.621,1.876-2.877-.014-3.756.479-.991.551-1.322,4.539-.318,5.295 1.453,1.096 5.129-4.062 5.147-5.584 .017-1.313-1.052-2.938-2.323-1.438" fill="none" stroke="#000" stroke-linecap="round" stroke-linejoin="round" stroke-miterlimit="10" stroke-width="1.5"/>
 <path d="m441.5,208.083c-1.297,2.093-4.924,3.202-6.806,5.007-1.898,1.821-4.854,3.109-6.382,5.206 4.511.889 6.582-4.518 9.737-6.52 .735-.467 6.611-2.676 3.023-3.707 2.465-.614 4.319-1.793 4.932-4.293 .405-1.659-.849-7.502 2.449-6.654 .305,2.62 2.764,2.939 1.82,6.173 .571-.139 1.389.029 1.953-.185-.96,2.884-3.829,3.354-6.197,4.666-1.605.892-2.759,2.195-4.743,2.019-.048-.372-.102-.83-.038-1.212" fill="none" stroke="#000" stroke-linecap="round" stroke-linejoin="round" stroke-miterlimit="10" stroke-width="1.5"/>
 <path d="m450,164.333c-2.777-1.202-1.544,1.572-.742,2.512 .909,1.066 2.247.937 2.03,2.723 2.406-1.518-.166-4.508-2.038-5.233" fill="none" stroke="#000" stroke-linecap="round" stroke-linejoin="round" stroke-miterlimit="10" stroke-width="1.5"/>
 <path d="m435.25,151.333c-.08,1.343.784,2.298 2.018,2.468 1.128.155-1.736-1.495-.518-1.468" fill="none" stroke="#000" stroke-linecap="round" stroke-linejoin="round" stroke-miterlimit="10" stroke-width="1.5"/>
 <path d="m440.75,153.583c-1.569.064-1.708,1.867-.487,2.536 .241-.354.321-.582.455-.985-.523-.465-.733-.062-.968-.051" fill="none" stroke="#000" stroke-linecap="round" stroke-linejoin="round" stroke-miterlimit="10" stroke-width="1.5"/>
 <path d="m449,174.333c-.333-.08-.202-.287 0-.5" fill="none" stroke="#000" stroke-linecap="round" stroke-linejoin="round" stroke-miterlimit="10" stroke-width="1.5"/>
 <path d="m303.25,14.333c-2.791,1.26-3.919-1.519-6-1.5-1.579.014-2.195,1.136-.711,2.212 .738.536 3.609.099 4.674.325 .126,1.554 2.648,1.384 2.537-.288" fill="none" stroke="#000" stroke-linecap="round" stroke-linejoin="round" stroke-miterlimit="10" stroke-width="1.5"/>
 <path d="m84.75,26.833c-1.536,1.884-6.453.217-8.699.5-1.372.173-2.458.774-3.789.944-2.27.291-2.436-1.159-4.325-1.393-1.562-.194-2.539,1.37-4.125,1.717-2.642.578-2.338-.743-4.568-1.779-2.505-1.165-8.477-1.552-10.231.99-3.915-2.588-6.908-1.094-10.449,1.277-1.496,1.002-3.192,2.615-4.831,3.255-1.313.513-2.037.202-3.44.282-1.099,2.684-4.549-.372-6.592.45-1.247.501-2.448,1.272-1.644,2.769 1.157,2.151 2.771-.362 3.711.271 1.542,1.039-.924,3.167-1.768,3.442-1.689.551-3.065-.429-4.677.258-2.816,1.201-3.429,4.702.139,4.555 .634,2.765-8.375,3.692-9.88,6.736 3.697-.744 5.671-5.012 8.861-6.346 2.497-1.044 3.171,1.122 5.058,1.34 1.362.157 4.138-2.072 5.249-2.829 2.316-1.576 3.241-1.289 5.694-1.37 2.112-.07 10.601-4.019 12.323-.586 .87,1.733-2.169,4.116-2.28,6.036-.167,2.892 1.313,2.574 3.23,3.464-.629,1.521-2.928,4.406-4.93,4.243-.486-3.505 2.511-4.289 2.25-.763 2.022-.43 2.31,1.08 2.175,2.75-.564-.125-1.361.201-1.925.075-.418,1.434.572,1.127.962,2.032 .525,1.217.821.757.694,2.431-.14,1.841-1.162,4.433-2.195,6-1.222,1.853-2.836,3.482-3.755,5.513-1.569,3.469.5,4.313 1.462,7.486 .524,1.729.38,3.552.975,5.308 .917,2.707.464,4.97.874,7.638 .309,2.01 2.003,3.332 2.763,5.318 .828,2.165-.253,4.069 2.174,5.279 2.23-2.05-1.842-6.321-2.437-8.781-.189-.782-.006-2.106-.356-2.771-.345-.654-1.425-.613-1.717-1.283-.502-1.152-.336-3.001.06-4.168 3.258.072 2.752,3.297 3.915,5.709 .971,2.016 1.9,4.428 3.218,6.251 1.646,2.276 2.892,3.689 3.324,6.495s-.806,4.43 1.682,6.067c2.187,1.439 4.925,1.247 7.062,2.174 .998.433 1.955.799 3,1.013 2.195.448 1.766-.141 3.019,1.551 .577.779.176,2.129 1.475,2.718 .95.431 2.651.325 3.562.677 2.944,1.136 4.625,3.255 7.206,4.507 .842.407 1.598,1.032 2.495,1.485 .615.311 1.372.272 1.955.625 .346.211.897,1.336 1.094,1.387 .913.23 5.166-1.389 5.162-2.162-3.368-.17-6.333,1.191-8.468-1.793-2.195-3.07-.013-5.491-.281-8.951-.946-.527-1.605-1.081-2.7-1.061-1.599.028-1.671,1.658-3.513.586-2.896-1.686 1.257-4.411 1.313-7.026 .085-4.009-2.406-1.042-3.869.902-1.648,2.19-3.106,1.924-5.444,1.793-1.066-.059-1.543.878-2.769-.419-.712-.753-.891-2.605-.987-3.63-.237-2.515-1.066-5.783-.188-8.188 .757-2.073 3.473-4.932 5.493-5.506 2.459-.699 5.254-.035 7.45-.495 1.42-.297 1.489-1.222 2.299-1.805 1.753-1.26.907-1.16 3.213-.451 1.735.533 4.033,1.938 5.95,1.539 .618,3.042-.428,5.784.331,8.674 3.722.712.478-8.553.951-10.707 .68-3.098 3.134-3.836 5.541-5.456 1.703-1.146 3.141-3.087 4.452-4.788 1.75-2.271 2.591-1.771 4.764-3.001 1.293-.732 1.494-2.04 2.513-3.016 .827-.792 1.447-.938 2.475-1.482 3.083-1.639 6.745-7.63 10.225-7.474 .053,1.275-1.091,1.751-1.174,2.93 1.936.431 3.332-1.456 4.979-2.175 1.609-.702 3.35-.58 4.479-2.25-1.39-.077-2.822-.006-4.208-.075-.321-1.17-.262-2.25-.076-3.419-.912-.329-1.956-.381-2.924-.331 .02-1.334 2.025-1.482 3.179-1.424-.443,1.92 1.951,3.162 2.507,1.199-.73-.481-1.443-.816-2.205-1.03 2.082-2.802 8.391.203 10.992-3.119-.424,3.506-3.307,3.19-4.774,5.35-2.559,3.766 3.68,1.375 4.98,1.344-.07.427.142,1.007.07,1.43 5.368.559.423-4.747.212-5.95-.248-1.416.671-2.641.694-4.013 .031-1.885-.678-2.359-1.682-3.514-.894-1.029-1.179-.435-1.513-2.23-.233-1.253.44-2.807-.689-3.768-1.64-1.395-1.851.279-3.068.767-1.207.484-2.404.541-3.959.457 .278-.519.434-1.604.684-2.162-2.872-1.104-2.636-4.873-6.718-4.55-2.061.163-2.605.814-3.569,2.75-.27.542-.419,1.642-.663,2.013-.4.608-1.572.766-1.78,1.475-.518,1.766 1.021,2.444-.245,4.263-1.208,1.737-2.999,1.076-4.242,2.286-1.182,1.15-.401,2.575-1.296,3.907-.882,1.313-3.584,2.594-5.172,2.285 .052-1.962 1.261-4.682 2.373-6.303-1.167-.613-2.688-.56-3.924-.201-.947-2.283-2.079-2.579-4.455-3.019 .074-.278.086-.671.199-.974-2.342-.272-1.413-2.883-.492-3.72 .83-.753 1.977-.964 2.748-1.758 .705-.725 1.005-1.546 1.746-2.243 1.147-1.079 4.217-3.091 5.761-3.58 1.897-.601 3.48.331 4.973-1.412-1.627,3.636 1.078,3.354 4.039,1.955 .224.279.775.523 1.002.805 2.111-1.726-2.294-2.188-3.249-3.781 1.43-1.265 2.776-.737 4.304-1.243 1.123-.372 1.883-.999 2.926-1.688 2.443-1.613 4.962-2.513 5.992,1.145-.556.041-1.157.356-1.703.343 .874.762 2.567.493 3.692.227 .762,3.119-4.721.967-3.245,4.18-.994.059-4.138-.938-4.68.283-1.218,2.741 4.672.684 4.967.737 2.518.457 3.068,5.584 7.237,3.017-.938-.995-2.151-2.079-3.222-3.073 1.537-.514 4.611,1.298 5.442-.676 .704-1.673-1.704-1.965-.919-3.457 1.37-.207 2.302.894 3.761.956 1.612.068 3.807-.744 4.736-2.011-1.446-1.474-3.846-.925-5.753-1.025-.018-.871.233-1.734.687-2.475-1.626-.933-2.481-1.526-3.911-2.806-1.453-1.299-1.624-1.411-3.775-1.47 .047-.347-.122-.828-.075-1.175-4.407-.223-7.504,1.243-10.741,3.874 .788-1.178 2.321-2.097 2.49-3.374-3.16-.587-5.417,1.226-4.924,4.675 2.403-.166 1.927,1.422.713,2.551-1.488,1.384-3.473.827-5.208,1.704-.205-1.14.543-1.973.279-2.979-.44-1.675-2.174-.245-1.065-2.744 .606-1.368 3.532-2.937 4.984-3.693-2.67-.199-2.632.336-4.437,1.762-1.265.999-2.941,1.161-4.109,2.388-1.596,1.676.25,1.595-.933,3.361-1.299,1.938-4.188.618-1.214-1.074-.733-.299-1.691-.617-2.51-.705 .32,2.343-.899,3.138-2.988,3.167-.292.004-.384-.708-.85-.724-.595-.02-1.122.413-1.7.329-.723-.104-1.447.064-2.224-.342 .654-2.441 4.244-.031 4.967-2.969 .62-2.518-1.224-2.187 1.93-4.193-1.186-.092-2.449-.078-3.648-.013-.129,2.901-2.844-.254-4.006-.311-.84-.041-1.139,1.052-1.974,1.051-.617,0-.55-.707-.839-.729-.891-.067-1.954-.282-2.9-.355-2.248-.174-8.933-.656-7.974,3.768 1.681.299 3.068-1.169 4.413-.968 1.538.23 1.241,1.32 2.512,2 1.975,1.056 5.22-1.506 4.455,2.474-2.549.088-3.863,1.649-6.46,1.1-1.573-.333-4.201-2.114-3.501-3.068" fill="none" stroke="#000" stroke-linecap="round" stroke-linejoin="round" stroke-miterlimit="10" stroke-width="1.5"/>
 <path d="m97.75,107.083c-.335-1.069-1.483-1.959-2.556-2.457-.525-.244-1.502.253-1.957-.026-.626-.384-.523-1.296-1.238-1.773-.855-.571-8.527-1.882-7.778.511 .193.619 6.849.231 8.096.978 .956.572 1.191,1.676 2.432,2.205 1.081.461 3.596,1.042 3-.688" fill="none" stroke="#000" stroke-linecap="round" stroke-linejoin="round" stroke-miterlimit="10" stroke-width="1.5"/>
 <path d="m95.5,110.083c-1.97-1.255-4.658.434-2.311,1.767 1.816,1.031 3.357-.886 1.811-2.267" fill="none" stroke="#000" stroke-linecap="round" stroke-linejoin="round" stroke-miterlimit="10" stroke-width="1.5"/>
 <path d="m111.71,110.115c.359.096-.289,2.52-2.087,1.393-1.837-1.151 1.253-1.616 2.087-1.393z" fill="none" stroke="#000" stroke-linecap="round" stroke-linejoin="round" stroke-miterlimit="10" stroke-width="1.5"/>
 <path d="m105.75,108.333c-1.308-.878-7.25-1.773-6.999.5 .366,3.315 6.246-.305 7.936.475 .183-.231.203-.471.313-.725" fill="none" stroke="#000" stroke-linecap="round" stroke-linejoin="round" stroke-miterlimit="10" stroke-width="1.5"/>
 <path d="m114.25 111.83h0.25" fill="none" stroke="#000" stroke-linecap="round" stroke-linejoin="round" stroke-miterlimit="10" stroke-width="1.5"/>
 <path d="m117,114.083c.187-.02.27.063.25.25" fill="none" stroke="#000" stroke-linecap="round" stroke-linejoin="round" stroke-miterlimit="10" stroke-width="1.5"/>
 <path d="m103.25,20.083c-1.438-.785-5.858-5.357-7.461-2.054-1.544,3.182 8.595,2.953 10.412,2.084 .149.114.416.38.557.5 1.402-.917.72-2.608-.939-2.492-1.382.097-2.492,3.338-3.568,1.711" fill="none" stroke="#000" stroke-linecap="round" stroke-linejoin="round" stroke-miterlimit="10" stroke-width="1.5"/>
 <path d="m107.5,15.333c-.942-.381-5.62-.198-3.448,1.712 1.055.928 5.021-.281 5.17-1.663-.833-.442-1.783-.609-2.722-.55" fill="none" stroke="#000" stroke-linecap="round" stroke-linejoin="round" stroke-miterlimit="10" stroke-width="1.5"/>
 <path d="m111.5,18.083c-4.198.286 4.209,4.701 4.48.732-1.57-.579-3.725-.183-5.442-.27-.054-.316-.056-.636-.038-.962" fill="none" stroke="#000" stroke-linecap="round" stroke-linejoin="round" stroke-miterlimit="10" stroke-width="1.5"/>
 <path d="m116.5,15.083c-1.237-1.649-3.452.066-2.28,1.462 .724.862 4.557.295 5.022-.663-1.224-.341-2.606-1.917-3.492-1.05" fill="none" stroke="#000" stroke-linecap="round" stroke-linejoin="round" stroke-miterlimit="10" stroke-width="1.5"/>
 <path d="m124.5,19.083c-1.601-.134-2.366-2.042-3.993-1.187-1.638.862-1.21,2.927.175,3.754 1.576.941 9.751.694 11.048-.269-1.275-.163-1.862-1.239-3.019-1.567-1.554-.44-4.067,1.184-4.711-.481" fill="none" stroke="#000" stroke-linecap="round" stroke-linejoin="round" stroke-miterlimit="10" stroke-width="1.5"/>
 <path d="m129.75,13.083c-1.966-.961-4.904.423-5.485,2.768 1.431.839 2.998.841 4.485,1.689 1.039.592 1.624,1.555 2.426,2.105 3.448,2.363 3.534-.478 5.824-2.268 2.681-2.095 7.872-2.757 10.962-3.729 2.254-.709 7.261-.349 8.522-2.252-2.943-1.981-7.932-.229-11.17.182-2.368.3-3.59-.118-5.847-.269-3.935-.264-12.116,4.795-14.967,2.524" fill="none" stroke="#000" stroke-linecap="round" stroke-linejoin="round" stroke-miterlimit="10" stroke-width="1.5"/>
 <path d="m154.5,24.333c-1.71.229-1.58,2.115-.039,2.542-.287.948.383,2.038.075,2.702-.569,1.228-2.603,1.566-3.11,2.757-.577,1.354.271,2.049.51,3.25 .252,1.271-.077,3.017.313,4.249 .832,2.625 4.239,2.57 6.499.95 1.763-1.264 2.368-4.735 3.756-5.673 1.291-.873 3.01-.002 4.708-.515 5.713-1.724 11.358-5.598 17.088-7.211 1.929-.543 2.259.561 3.644-1.295 .557-.746 1.218-2.354 1.755-3.25 1.259-2.104-.242-1.105 2.294-1.987 2.648-.921 1.414-1.005 2.294-3.019 1.449-3.315 4.319-4.043 7.449-4.932-1.345-.468-2.549-1.295-3.991-1.322-1.053-.02-2.313.977-3.263.771-.675-.146-1.347-1.217-1.982-1.517-1.027-.485-1.538-.384-2.732-.502-6.972-.69-13.937-.922-20.718.5-2.096.439-4.663.148-6.623.739-1.31.395-3.201,1.538-4.732,1.958-.808.222-1.666.442-2.486.611-1.607.331-1.418.133-2.972.125-2.554-.012-4.985,1.387-.733,2.124-1.504,1.582-5.339.363-7.439.676-.924.138-2.802.279-2.491,1.505 .419,1.651 5.263,1.127 6.414,1.014 1.111-.109 2.17-.504 3.278-.574 2.207-.14 1.484-.196 2.493,1.018 .875,1.054.666,2.438.743,3.057" fill="none" stroke="#000" stroke-linecap="round" stroke-linejoin="round" stroke-miterlimit="10" stroke-width="1.5"/>
</svg>
